<?xml version="1.0" encoding="UTF-8"?>
<svg version="1.1" xmlns="http://www.w3.org/2000/svg" width="1254" height="1254">

<path d="M0 0 C0.66 0 1.32 0 2 0 C3.46684449 5.4557732 4.45620748 10.72569843 5.03515625 16.33984375 C5.11873886 17.10623672 5.20232147 17.8726297 5.28843689 18.6622467 C5.55167874 21.08680208 5.80725744 23.51209085 6.0625 25.9375 C6.23711551 27.55930029 6.41224172 29.18104568 6.58789062 30.80273438 C6.98786276 34.50248253 7.38496515 38.20249128 7.76959229 41.90386963 C7.92247798 43.29474467 8.09044727 44.68404908 8.27386475 46.07122803 C9.12462138 52.72371695 9.14441336 59.32350781 9.1328125 66.0234375 C9.13376923 67.24656647 9.13472595 68.46969543 9.13571167 69.72988892 C9.13638905 72.29990694 9.13456572 74.86992672 9.13037109 77.43994141 C9.12498884 81.38317664 9.13034526 85.3262994 9.13671875 89.26953125 C9.13605843 91.77083359 9.13477823 94.27213585 9.1328125 96.7734375 C9.13483673 97.95465179 9.13686096 99.13586609 9.13894653 100.35287476 C9.13579437 101.44476105 9.13264221 102.53664734 9.12939453 103.66162109 C9.12820114 105.10316055 9.12820114 105.10316055 9.12698364 106.57382202 C9 109 9 109 8 112 C7.65817767 114.47893002 7.34813211 116.95218227 7.0625 119.4375 C4.68944687 138.91785185 1.50622073 160.53575668 -7.97265625 177.98828125 C-9.1654163 180.32391405 -10.16125505 182.7287717 -11.18530273 185.1418457 C-18.86279339 202.6525983 -30.22303978 217.91760934 -43 232 C-43.639375 232.72316406 -44.27875 233.44632813 -44.9375 234.19140625 C-73.99711198 265.26183959 -115.81668435 277.90925267 -157 280 C-163.79037985 298.20143238 -167.47684114 316.76136675 -170.86328125 335.83984375 C-179.39477546 383.54948456 -201.61692625 420.69280023 -235.46582031 454.64282227 C-236.45804385 455.64133776 -237.45008832 456.64003123 -238.44197083 457.6388855 C-241.65056272 460.86817745 -244.86417308 464.09245031 -248.078125 467.31640625 C-249.19688515 468.43922526 -250.31561607 469.56207339 -251.43431854 470.68494987 C-256.69049726 475.96009695 -261.94902983 481.2328835 -267.21050477 486.50274807 C-273.23514318 492.53715962 -279.25139778 498.5797715 -285.26070523 504.62944943 C-289.94189718 509.34098335 -294.63091275 514.04464148 -299.32565188 518.7426762 C-302.11375191 521.53310379 -304.89858758 524.32659786 -307.67508698 527.12857246 C-321.01492786 540.58456698 -334.20636262 553.75474133 -351.0625 562.8125 C-351.72258057 563.17303467 -352.38266113 563.53356934 -353.06274414 563.9050293 C-364.28879999 569.9341109 -375.40922702 574.05184436 -387.87060547 576.55761719 C-389.30849343 576.85633915 -390.74024495 577.1860214 -392.16455078 577.54394531 C-399.47569027 579.27088953 -406.72802285 579.30440484 -414.19433594 579.26074219 C-416.36421878 579.25005311 -418.53326771 579.26067363 -420.703125 579.2734375 C-456.09275713 579.31432294 -487.24018639 564.02724045 -512.5 539.875 C-538.10611717 513.57682561 -549.48632747 479.38755087 -549.14453125 443.19921875 C-548.41428397 403.60556757 -528.75176062 369.0382787 -501.1328125 341.875 C-499.92283498 340.67318805 -498.71361126 339.47061677 -497.50509644 338.26733398 C-494.36009609 335.1392449 -491.20659328 332.01988435 -488.05059814 328.90289307 C-482.97820567 323.8903101 -477.91896831 318.86445513 -472.86013412 313.8381958 C-471.10361347 312.09553815 -469.34328784 310.35680027 -467.58230591 308.61865234 C-466.50286639 307.54923806 -465.42350625 306.47974366 -464.34423828 305.41015625 C-463.40621368 304.48340088 -462.46818909 303.55664551 -461.5017395 302.60180664 C-459.16279938 300.1693112 -457.07880439 297.65465096 -455 295 C-452.60468356 292.48184682 -450.24768942 290.1919593 -447.5 288.0625 C-444.84375191 286.0007716 -444.84375191 286.0007716 -442.5 283 C-440 280 -440 280 -437.5625 278.0625 C-435.36445311 276.29334031 -434.0168753 274.81291997 -432.3125 272.625 C-428.04053251 267.47644697 -421.67522503 263.15924709 -415 262 C-405.48721302 261.14914955 -398.42464182 262.79452983 -390.25 267.625 C-383.20292033 275.0635841 -380.61482485 282.57696915 -380.7265625 292.64453125 C-381.88899401 306.90922649 -395.78482559 316.87980684 -405.26171875 326.22265625 C-406.15503906 327.10824219 -407.04835938 327.99382812 -407.96875 328.90625 C-409.16661133 330.08670898 -409.16661133 330.08670898 -410.38867188 331.29101562 C-412.36365315 333.33985558 -414.20866537 335.39802234 -416.05102539 337.55981445 C-420.59420149 342.7925436 -425.55269476 347.60045412 -430.49616814 352.44907188 C-432.86292895 354.7731035 -435.2198188 357.10704548 -437.57745457 359.44032764 C-441.94678205 363.76430562 -446.31982571 368.08434213 -450.7097168 372.38745117 C-453.78285678 375.40059736 -456.84311878 378.42633288 -459.89572334 381.46027565 C-461.04838748 382.60134024 -462.2055289 383.73790336 -463.36753654 384.86945152 C-479.31594542 400.41023124 -490.93080551 420.19860726 -491.2421875 442.94311523 C-491.30185775 465.81360147 -486.34816454 484.51947232 -469.8828125 501.13671875 C-453.79432258 516.16600204 -434.97837299 521.80484095 -413.33203125 521.21484375 C-408.33917163 521.00163687 -403.7978481 520.43447998 -399 519 C-398.37335449 518.82758789 -397.74670898 518.65517578 -397.10107422 518.47753906 C-375.20386556 512.38135617 -360.50777632 500.33186215 -345.80152893 483.29458618 C-342.39570677 479.40072839 -338.83890672 475.70910715 -335.16601562 472.06835938 C-334.52274826 471.42655228 -333.8794809 470.78474518 -333.21672058 470.12348938 C-331.83417528 468.74471885 -330.45047714 467.36710349 -329.0657196 465.99055481 C-326.86809039 463.80581418 -324.67370966 461.61785574 -322.48010254 459.42907715 C-317.03407592 453.9963441 -311.58259647 448.56909338 -306.13128662 443.1416626 C-301.51447326 438.54465109 -296.89976178 433.94554865 -292.2877655 429.34370422 C-290.13681369 427.19918491 -287.98284828 425.05772516 -285.82873535 422.91638184 C-284.49700216 421.58828469 -283.16541115 420.26004496 -281.83398438 418.93164062 C-281.24364914 418.34647171 -280.6533139 417.7613028 -280.04508972 417.15840149 C-276.38660844 413.50037809 -272.93718813 409.71022499 -269.5687027 405.78325653 C-267.33955889 403.24922936 -264.93985102 400.95721054 -262.5 398.625 C-257.60705203 393.81362891 -253.64776481 388.80697985 -250 383 C-249.47841309 382.18837402 -249.47841309 382.18837402 -248.94628906 381.36035156 C-240.84617365 368.70787293 -235.02840616 355.46269958 -230.140625 341.28125 C-229.33183115 338.95458276 -228.47619516 336.6439607 -227.58862305 334.34619141 C-225.96249335 330.01813612 -224.67435748 325.63328829 -223.44140625 321.1796875 C-223.21098129 320.35856476 -222.98055634 319.53744202 -222.7431488 318.69143677 C-222.01298328 316.08686323 -221.28759629 313.4809888 -220.5625 310.875 C-220.08040797 309.1509494 -219.59798854 307.42699031 -219.11523438 305.703125 C-218.87925034 304.86016876 -218.6432663 304.01721252 -218.40013123 303.14871216 C-218.16625198 302.31330902 -217.93237274 301.47790588 -217.69140625 300.6171875 C-217.22596942 298.95427088 -216.76055546 297.29134785 -216.29516602 295.62841797 C-215.96477829 294.44841217 -215.96477829 294.44841217 -215.62771606 293.24456787 C-215.23138388 291.82737541 -214.83583213 290.40996425 -214.44137573 288.99224854 C-208.1807318 266.50598295 -200.35726716 244.9268155 -190 224 C-189.23598877 222.44539063 -189.23598877 222.44539063 -188.45654297 220.859375 C-178.99626559 201.74652634 -168.20704509 183.76764424 -155 167 C-154.33613281 166.1440625 -153.67226563 165.288125 -152.98828125 164.40625 C-146.1988444 155.76272332 -138.85869285 147.67917956 -131 140 C-130.21625 139.21625 -129.4325 138.4325 -128.625 137.625 C-127.75875 136.75875 -126.8925 135.8925 -126 135 C-125.40058594 134.36578125 -124.80117188 133.7315625 -124.18359375 133.078125 C-117.66156762 126.30386582 -110.48181907 120.65474988 -103 115 C-102.08226807 114.29907227 -102.08226807 114.29907227 -101.14599609 113.58398438 C-84.97281361 101.25912436 -67.25689246 90.94097419 -49 82 C-73.5898911 90.47722144 -98.30121747 100.43921407 -120 115 C-120.66854004 115.44520996 -121.33708008 115.89041992 -122.02587891 116.34912109 C-145.07459802 131.82835398 -167.04567201 151.15778109 -183 174 C-183.58523438 174.82741699 -184.17046875 175.65483398 -184.7734375 176.50732422 C-198.98695206 196.74659834 -212.31797875 218.35027105 -220 242 C-220.66 242 -221.32 242 -222 242 C-233.22837345 210.93220877 -233.22837345 210.93220877 -235 197 C-235.17789062 195.98164063 -235.35578125 194.96328125 -235.5390625 193.9140625 C-237.54688579 176.86457997 -236.79433477 159.48810301 -232 143 C-231.68651611 141.87658203 -231.68651611 141.87658203 -231.36669922 140.73046875 C-226.79567249 124.65141142 -219.46212461 110.07278512 -209 97 C-208.19433594 95.98035156 -207.38867188 94.96070313 -206.55859375 93.91015625 C-201.81410987 88.00163889 -196.90750772 82.7442533 -191 78 C-190.31164062 77.401875 -189.62328125 76.80375 -188.9140625 76.1875 C-171.58803671 61.52246793 -150.72889714 52.01956715 -129 46 C-127.41795776 45.54052979 -127.41795776 45.54052979 -125.80395508 45.07177734 C-116.74417899 42.52320696 -107.72948474 40.85361217 -98.42562866 39.4772644 C-83.8813667 37.3091955 -69.60335057 34.68295427 -55.43359375 30.68505859 C-53.1806366 30.05084935 -50.92087303 29.45412098 -48.65625 28.86328125 C-33.44972308 24.71270748 -19.2431211 16.86923048 -7 7 C-6.35417969 6.49339844 -5.70835937 5.98679687 -5.04296875 5.46484375 C-2.07773036 3.10991237 -2.07773036 3.10991237 0 0 Z " fill="#639E3D" transform="translate(973,314)"/>
<path d="M0 0 C0.77939941 0.19867676 1.55879883 0.39735352 2.36181641 0.60205078 C14.36379552 3.7296405 25.16693839 7.98027847 36 14 C36.90878906 14.49242187 37.81757812 14.98484375 38.75390625 15.4921875 C70.38362869 33.46477457 90.33245561 64.22902327 100.23828125 98.5859375 C102.3491397 108.04691334 102.28049672 117.66692108 102.3125 127.3125 C102.31511841 128.06744751 102.31773682 128.82239502 102.32043457 129.60021973 C102.3246889 141.06686103 101.58273334 151.87438195 98.546875 162.9921875 C98.02733936 164.89962551 97.57421617 166.82478784 97.125 168.75 C93.98974165 181.29103339 87.77592901 192.36537701 81.0625 203.3125 C80.50731689 204.22588135 80.50731689 204.22588135 79.94091797 205.15771484 C71.13270561 219.10870265 58.95499453 230.37180576 47.37109375 241.96484375 C46.41981971 242.91897084 45.46871599 243.87326777 44.5177784 244.82773018 C39.54689388 249.81701715 34.57097402 254.80121578 29.59008789 259.78051758 C24.96666054 264.40273966 20.35455316 269.03604978 15.74750274 273.67459005 C11.76967955 277.67861898 7.78412774 281.67484353 3.79254204 285.66515261 C1.41791662 288.03927054 -0.95255062 290.41717406 -3.31720161 292.80125237 C-5.95148099 295.4551589 -8.59817008 298.09605593 -11.24829102 300.73413086 C-12.01890366 301.51598251 -12.7895163 302.29783417 -13.58348083 303.1033783 C-20.49682579 309.93727925 -27.25507902 314.03913484 -37.125 314.3125 C-44.71774148 314.21126345 -51.07918409 312.06463544 -56.8125 307 C-62.87757509 300.27380298 -65.55193588 291.90362436 -65.56640625 282.9609375 C-63.30812754 271.15559085 -56.58070331 264.86798088 -48.1875 256.875 C-46.42817357 255.17364669 -44.67326033 253.46789801 -42.92048645 251.75979614 C-41.83658538 250.7063011 -40.74831605 249.65727105 -39.65458679 248.61398315 C-36.90140502 245.96635546 -34.32291956 243.25220014 -31.84228516 240.34667969 C-27.46965049 235.28626411 -22.70094138 230.63636806 -17.93535423 225.95188522 C-16.25236794 224.29599025 -14.57416944 222.63537813 -12.89729309 220.97329712 C-8.1343507 216.2526385 -3.36887101 211.53465394 1.41333008 206.83349609 C4.35462151 203.94136504 7.28550615 201.03901429 10.21033287 198.13023758 C11.31197625 197.03833926 12.41722226 195.95006073 13.52646828 194.86588669 C24.15925778 184.46808306 33.81601839 173.1448641 39 159 C39.69609375 157.24429688 39.69609375 157.24429688 40.40625 155.453125 C43.64494034 146.57137961 44.4643859 138.12254763 44.5 128.6875 C44.50620361 127.61491943 44.51240723 126.54233887 44.51879883 125.43725586 C44.3536681 114.95991249 42.21405966 105.25559909 37.375 95.9375 C37.03017578 95.26340088 36.68535156 94.58930176 36.33007812 93.89477539 C27.18915869 76.66118828 11.57632548 64.87740232 -6.515625 58.05078125 C-27.85155677 52.29007967 -50.39995855 55.08541177 -69.62646484 65.65673828 C-85.76921242 75.11943255 -99.35771315 90.24077483 -111.46337891 104.27856445 C-113.9417276 107.05499226 -116.74535924 109.36925549 -119.59375 111.75 C-121.6078589 113.63332261 -123.33557937 115.51288746 -125.11999512 117.60412598 C-129.055272 122.12666436 -133.23422587 126.36083851 -137.48632812 130.58398438 C-138.30515976 131.40135574 -139.12399139 132.21872711 -139.96763611 133.06086731 C-141.73324247 134.82268919 -143.50000242 136.58335562 -145.26780701 138.3429718 C-148.07030031 141.13262134 -150.86966668 143.92538652 -153.66809082 146.71911621 C-160.11296561 153.15200999 -166.56287114 159.57985185 -173.01284027 166.00763702 C-178.93007055 171.90462051 -184.84619908 177.80269861 -190.75827169 183.70485353 C-193.97831472 186.91915937 -197.20224516 190.12953506 -200.42687988 193.3392334 C-202.12262614 195.03134491 -203.81823091 196.72359823 -205.51367188 198.41601562 C-206.2723204 199.16949783 -207.03096893 199.92298004 -207.81260681 200.69929504 C-211.89222449 204.77851033 -215.7956423 208.94911847 -219.54949284 213.3308382 C-221.30495811 215.35092858 -223.17228034 217.20978209 -225.12109375 219.04296875 C-233.53010933 227.09984477 -240.70709246 234.5104196 -246 245 C-246.48597656 245.93199219 -246.97195313 246.86398437 -247.47265625 247.82421875 C-255.74887983 264.73859989 -257.6209605 286.8772147 -251.5 304.8125 C-250.44949175 307.60334605 -249.27584188 310.30535148 -248 313 C-247.70561035 313.63180176 -247.4112207 314.26360352 -247.10791016 314.91455078 C-242.12838292 325.25415449 -234.71547389 335.95390972 -224.5 341.625 C-221.36769382 343.78323536 -220.98679817 345.04981153 -219.984375 348.83203125 C-219.29556749 352.77120288 -218.81696808 356.73553299 -218.32421875 360.703125 C-216.09342775 376.50680103 -209.58862866 392.84414561 -202.06640625 406.84765625 C-201 409 -201 409 -201 411 C-232.4213982 408.24151196 -263.19190185 390.39612559 -283.34375 366.39990234 C-307.34041074 336.71937345 -316.33147324 300.71663022 -312.5625 262.98828125 C-307.88632112 226.22192403 -285.786554 197.3390849 -260.23583984 172.22094727 C-259.74745636 171.73939178 -259.25907288 171.2578363 -258.75588989 170.76168823 C-257.41694869 169.44295207 -256.0743256 168.12795717 -254.73144531 166.81323242 C-252.68112071 164.70151537 -250.76170585 162.58366427 -248.85058594 160.3527832 C-244.65434638 155.51430192 -240.12953646 151.01613518 -235.58444214 146.50927734 C-234.02526273 144.9630726 -232.46941379 143.41358104 -230.91430664 141.86328125 C-227.05434197 138.01655775 -223.18890098 134.17535284 -219.3236084 130.33398438 C-216.04550558 127.07574304 -212.76955008 123.8153701 -209.49630737 120.55224609 C-207.97690534 119.03923948 -206.45448297 117.5293203 -204.93188477 116.01953125 C-203.98438709 115.07567206 -203.03703288 114.13166882 -202.08984375 113.1875 C-200.86575806 111.97126953 -200.86575806 111.97126953 -199.61694336 110.73046875 C-197.54398257 108.56758103 -195.5694108 106.37821861 -193.60957336 104.11552429 C-190.25885739 100.25655644 -186.75689939 96.5899435 -183.15698242 92.96411133 C-182.51187714 92.31082855 -181.86677185 91.65754578 -181.20211792 90.98446655 C-179.08956309 88.84733089 -176.97309624 86.71414016 -174.85546875 84.58203125 C-174.12310816 83.84434698 -173.39074757 83.10666271 -172.63619423 82.34662437 C-168.754259 78.43806811 -164.86872327 74.53312772 -160.98071289 70.63061523 C-157.79782916 67.43444518 -154.62235038 64.23119403 -151.45336914 61.02124023 C-147.59222726 57.11021089 -143.71842219 53.21213586 -139.83577919 49.32245445 C-138.3753999 47.85545345 -136.9192001 46.38427708 -135.46770287 44.90848732 C-122.63923189 31.87775546 -108.72444464 20.19136269 -92.25 12 C-91.372229 11.55269531 -90.49445801 11.10539062 -89.59008789 10.64453125 C-82.57071547 7.13516665 -75.53845494 4.22554888 -68 2 C-67.03578125 1.70738281 -66.0715625 1.41476562 -65.078125 1.11328125 C-44.44910083 -4.60151599 -20.7133013 -5.42062176 0 0 Z " fill="#175F3A" transform="translate(629,426)"/>
<path d="M0 0 C0.66 0.66 1.32 1.32 2 2 C-5.92 9.92 -13.84 17.84 -22 26 C-22.99 25.67 -23.98 25.34 -25 25 C-16.75 16.75 -8.5 8.5 0 0 Z " fill="#EEF0DD" transform="translate(457,590)"/>
<path d="M0 0 C-3.03416719 1.65994192 -6.07849058 3.30033621 -9.125 4.9375 C-9.9809375 5.40607422 -10.836875 5.87464844 -11.71875 6.35742188 C-20.20301832 10.89324225 -20.20301832 10.89324225 -25 11 C-26.35414448 10.37669032 -27.69206257 9.7152076 -29 9 C-25.19504005 7.54779766 -21.38646314 6.10558215 -17.57421875 4.67260742 C-16.27728041 4.18349403 -14.98137204 3.6916406 -13.68652344 3.19702148 C-11.82758804 2.48746613 -9.96462456 1.78849202 -8.1015625 1.08984375 C-6.42054443 0.45357056 -6.42054443 0.45357056 -4.70556641 -0.19555664 C-2 -1 -2 -1 0 0 Z " fill="#DCE9C6" transform="translate(926,396)"/>
<path d="M0 0 C0.99 0.33 1.98 0.66 3 1 C-3.93 7.93 -10.86 14.86 -18 22 C-18 17.81729989 -15.67866313 16.11521577 -12.9375 13.25 C-12.43887451 12.71793945 -11.94024902 12.18587891 -11.42651367 11.63769531 C-7.69783926 7.67729537 -3.88931228 3.80288312 0 0 Z " fill="#E2E8D5" transform="translate(429,618)"/>
<path d="M0 0 C0.66 0.66 1.32 1.32 2 2 C-0.40428839 4.49143267 -2.82540014 6.96584229 -5.25 9.4375 C-5.93191406 10.14455078 -6.61382812 10.85160156 -7.31640625 11.58007812 C-7.98027344 12.25361328 -8.64414062 12.92714844 -9.328125 13.62109375 C-9.9355957 14.2442749 -10.54306641 14.86745605 -11.16894531 15.50952148 C-13.13505077 17.10993133 -14.5224311 17.59584059 -17 18 C-11.72898586 11.58930713 -5.90871848 5.81409488 0 0 Z " fill="#1F6541" transform="translate(409,557)"/>
<path d="M0 0 C0.66 0.33 1.32 0.66 2 1 C-11.16810345 16.40948276 -11.16810345 16.40948276 -17 18 C-11.72898586 11.58930713 -5.90871848 5.81409488 0 0 Z " fill="#296B48" transform="translate(508,457)"/>
<path d="M0 0 C0.66 0.33 1.32 0.66 2 1 C-3.61 6.61 -9.22 12.22 -15 18 C-15.99 17.67 -16.98 17.34 -18 17 C-17.2575 16.443125 -16.515 15.88625 -15.75 15.3125 C-13.06089262 13.05120516 -11.15434893 10.76025956 -9 8 C-6.17010633 5.02861164 -3.35737431 2.36259673 0 0 Z " fill="#75A94F" transform="translate(535,593)"/>
<path d="M0 0 C0 4.25491168 -2.47159742 6.07313316 -5.25 9 C-5.98669922 9.80050781 -5.98669922 9.80050781 -6.73828125 10.6171875 C-9.31357494 13.37790233 -11.88308798 15.8626889 -15 18 C-15.66 17.67 -16.32 17.34 -17 17 C-11.39 11.39 -5.78 5.78 0 0 Z " fill="#E3EAD9" transform="translate(694,649)"/>
<path d="M0 0 C0 4.28933597 -2.56202198 6.12645419 -5.375 9.0625 C-5.88289062 9.60455078 -6.39078125 10.14660156 -6.9140625 10.70507812 C-8.91353454 12.8334635 -10.93504609 14.93504609 -13 17 C-13.99 16.67 -14.98 16.34 -16 16 C-10.72 10.72 -5.44 5.44 0 0 Z " fill="#6CA247" transform="translate(661,763)"/>
<path d="M0 0 C0.66 0.66 1.32 1.32 2 2 C-2.28565853 7.09057916 -6.19579645 11.66258296 -12 15 C-10.38462556 11.10082032 -7.72075127 8.28706228 -4.875 5.25 C-4.40707031 4.74339844 -3.93914063 4.23679687 -3.45703125 3.71484375 C-2.30873459 2.47280859 -1.15491328 1.23588506 0 0 Z " fill="#F7F7E5" transform="translate(938,536)"/>
<path d="M0 0 C0.33 0 0.66 0 1 0 C1.38063221 2.3260857 1.71269945 4.66055264 2 7 C1.67 7.33 1.34 7.66 1 8 C0.84313751 9.55948542 0.74923361 11.12542668 0.68359375 12.69140625 C0.62075195 14.10776367 0.62075195 14.10776367 0.55664062 15.55273438 C0.51732422 16.54595703 0.47800781 17.53917969 0.4375 18.5625 C0.39431641 19.55958984 0.35113281 20.55667969 0.30664062 21.58398438 C0.20019702 24.0558415 0.09818072 26.5278031 0 29 C-0.33 29 -0.66 29 -1 29 C-1.02918874 25.29168337 -1.04686218 21.58339658 -1.0625 17.875 C-1.07087891 16.82828125 -1.07925781 15.7815625 -1.08789062 14.703125 C-1.10375207 9.6909095 -1.08177213 4.92334088 0 0 Z " fill="#DFE9CB" transform="translate(482,743)"/>
<path d="M0 0 C0.66 0 1.32 0 2 0 C2.83819158 1.62249941 3.6704116 3.24808497 4.5 4.875 C4.9640625 5.77992188 5.428125 6.68484375 5.90625 7.6171875 C7 10 7 10 7 12 C4 11 4 11 2.83203125 9.2578125 C2.49558594 8.55398438 2.15914063 7.85015625 1.8125 7.125 C1.46832031 6.42632813 1.12414062 5.72765625 0.76953125 5.0078125 C0 3 0 3 0 0 Z " fill="#D7E0D2" transform="translate(325,760)"/>
<path d="M0 0 C-0.99 2.97 -1.98 5.94 -3 9 C-3.66 9 -4.32 9 -5 9 C-5.66 6.69 -6.32 4.38 -7 2 C-4.35261084 0.5393715 -3.10551666 0 0 0 Z " fill="#76AC4F" transform="translate(756,547)"/>
<path d="M0 0 C3 3.75 3 3.75 3 6 C0.03 5.67 -2.94 5.34 -6 5 C-5.01 4.67 -4.02 4.34 -3 4 C-2.67 3.01 -2.34 2.02 -2 1 C-1.34 0.67 -0.68 0.34 0 0 Z " fill="#3B7B59" transform="translate(425,831)"/>
<path d="M0 0 C0.33 0.99 0.66 1.98 1 3 C-2.3 5.97 -5.6 8.94 -9 12 C-9.66 11.67 -10.32 11.34 -11 11 C-7.37 7.37 -3.74 3.74 0 0 Z " fill="#367251" transform="translate(608,655)"/>
<path d="M0 0 C0.99 0.33 1.98 0.66 3 1 C0.03 3.97 -2.94 6.94 -6 10 C-6.66 9.34 -7.32 8.68 -8 8 C-5.36 5.36 -2.72 2.72 0 0 Z " fill="#276B48" transform="translate(488,477)"/>
<path d="M0 0 C0.33 0.99 0.66 1.98 1 3 C-1.64 5.64 -4.28 8.28 -7 11 C-7.66 10.67 -8.32 10.34 -9 10 C-6.03 6.7 -3.06 3.4 0 0 Z " fill="#6BA344" transform="translate(464,664)"/>
<path d="M0 0 C-2.15266842 2.15266842 -3.84773744 2.93474462 -6.625 4.125 C-7.44226563 4.47820313 -8.25953125 4.83140625 -9.1015625 5.1953125 C-9.72804688 5.46085938 -10.35453125 5.72640625 -11 6 C-10.67578125 4.11328125 -10.67578125 4.11328125 -10 2 C-6.45371784 -0.28538184 -4.05371308 -1.71503246 0 0 Z " fill="#74A94E" transform="translate(558,578)"/>
<path d="M0 0 C0.66 0.66 1.32 1.32 2 2 C-0.64 4.31 -3.28 6.62 -6 9 C-6.99 8.34 -7.98 7.68 -9 7 C-6.03 4.69 -3.06 2.38 0 0 Z " fill="#73A84D" transform="translate(967,320)"/>
<path d="M0 0 C1.25 1.5625 1.25 1.5625 2 4 C0.93237266 6.57001015 -0.46544943 8.6530403 -2 11 C-2.66 11 -3.32 11 -4 11 C-3.52269162 9.5410574 -3.04308958 8.08286504 -2.5625 6.625 C-2.29566406 5.81289063 -2.02882813 5.00078125 -1.75390625 4.1640625 C-1 2 -1 2 0 0 Z " fill="#E8EDD0" transform="translate(761,534)"/>
<path d="M0 0 C0.66 0.99 1.32 1.98 2 3 C1.21718695 4.33855056 0.42348123 5.67073644 -0.375 7 C-0.81585937 7.7425 -1.25671875 8.485 -1.7109375 9.25 C-2.13632812 9.8275 -2.56171875 10.405 -3 11 C-3.66 11 -4.32 11 -5 11 C-3.55049545 7.2089881 -1.84827434 3.6125362 0 0 Z " fill="#EEF1D6" transform="translate(769,519)"/>
<path d="M0 0 C-0.33 0.99 -0.66 1.98 -1 3 C-4.80269732 4.6900877 -7.05272168 5.19873962 -11 4 C-9.5437455 3.32880451 -8.08492133 2.66318193 -6.625 2 C-5.81289063 1.62875 -5.00078125 1.2575 -4.1640625 0.875 C-2 0 -2 0 0 0 Z " fill="#75A851" transform="translate(823,368)"/>
<path d="M0 0 C0.66 0.33 1.32 0.66 2 1 C0.02 3.31 -1.96 5.62 -4 8 C-4.99 7.67 -5.98 7.34 -7 7 C-4.69 4.69 -2.38 2.38 0 0 Z " fill="#DCE5D6" transform="translate(545,501)"/>
<path d="M0 0 C0.66 0.33 1.32 0.66 2 1 C-0.97 3.97 -3.94 6.94 -7 10 C-7.33 9.01 -7.66 8.02 -8 7 C-5.36 4.69 -2.72 2.38 0 0 Z " fill="#EEF2DA" transform="translate(832,443)"/>
<path d="M0 0 C0.33 0 0.66 0 1 0 C1.75 3.25 1.75 3.25 2 7 C0.0625 9.4375 0.0625 9.4375 -2 11 C-3 9 -3 9 -2.44140625 6.8359375 C-2.15136719 6.02382813 -1.86132812 5.21171875 -1.5625 4.375 C-1.27503906 3.55773437 -0.98757813 2.74046875 -0.69140625 1.8984375 C-0.46324219 1.27195312 -0.23507812 0.64546875 0 0 Z " fill="#C2D3BC" transform="translate(727,588)"/>
<path d="M0 0 C0.75 1.5625 0.75 1.5625 1 4 C-0.13084437 6.50286409 -1.52139516 8.67007722 -3 11 C-3.66 11 -4.32 11 -5 11 C-3.77472971 6.94718288 -2.30119506 3.55639236 0 0 Z " fill="#77AA4F" transform="translate(755,424)"/>
<path d="M0 0 C3.14958831 3.42346555 3.56179109 6.44262737 4 11 C1.68222713 8.15546057 0.10881319 5.51124178 -1 2 C-0.67 1.34 -0.34 0.68 0 0 Z " fill="#1C6541" transform="translate(331,765)"/>
<path d="M0 0 C2.45823172 3.68734758 3.01242616 6.69699971 4 11 C2 9.4375 2 9.4375 0 7 C-0.25 3.25 -0.25 3.25 0 0 Z " fill="#DBE4C7" transform="translate(743,533)"/>
<path d="M0 0 C0.33 0.66 0.66 1.32 1 2 C-1.47812494 5.45167403 -2.79606135 7.23163306 -7 8 C-6.02133662 6.85373678 -5.04205413 5.70800212 -4.0625 4.5625 C-3.51722656 3.92441406 -2.97195313 3.28632813 -2.41015625 2.62890625 C-1.63204305 1.73008851 -0.84063472 0.84063472 0 0 Z " fill="#2E6D4C" transform="translate(474,491)"/>
<path d="M0 0 C0.33 0 0.66 0 1 0 C1 1.98 1 3.96 1 6 C0.34 6 -0.32 6 -1 6 C-1 6.66 -1 7.32 -1 8 C-1.99 8.33 -2.98 8.66 -4 9 C-2.80100302 5.9168649 -1.52299523 2.93720508 0 0 Z " fill="#2E6D4D" transform="translate(335,638)"/>
<path d="M0 0 C0.66 0.66 1.32 1.32 2 2 C-0.97 4.475 -0.97 4.475 -4 7 C-4.66 6.67 -5.32 6.34 -6 6 C-4.02 4.02 -2.04 2.04 0 0 Z " fill="#1F6642" transform="translate(360,607)"/>
<path d="M0 0 C0.66 0.66 1.32 1.32 2 2 C0.68 3.32 -0.64 4.64 -2 6 C-2.99 5.67 -3.98 5.34 -5 5 C-3.35 3.35 -1.7 1.7 0 0 Z " fill="#E8EDD0" transform="translate(938,536)"/>
<path d="M0 0 C0.66 0.33 1.32 0.66 2 1 C-0.97 2.65 -3.94 4.3 -7 6 C-7.66 5.34 -8.32 4.68 -9 4 C-7.54618103 3.30300448 -6.08677047 2.61766134 -4.625 1.9375 C-3.40683594 1.36322266 -3.40683594 1.36322266 -2.1640625 0.77734375 C-1.44992187 0.52082031 -0.73578125 0.26429688 0 0 Z " fill="#C7D7C1" transform="translate(572,485)"/>
<path d="M0 0 C3.625 0.375 3.625 0.375 7 1 C6.67 1.66 6.34 2.32 6 3 C3.36 2.67 0.72 2.34 -2 2 C-1.34 1.34 -0.68 0.68 0 0 Z " fill="#E9EFD2" transform="translate(899,404)"/>
<path d="M0 0 C-0.66 0.66 -1.32 1.32 -2 2 C-2.99 2 -3.98 2 -5 2 C-5 2.66 -5 3.32 -5 4 C-6.32 3.34 -7.64 2.68 -9 2 C-3.375 -1.125 -3.375 -1.125 0 0 Z " fill="#73AA4C" transform="translate(951,334)"/>
<path d="M0 0 C0.33 0.99 0.66 1.98 1 3 C-0.65 4.65 -2.3 6.3 -4 8 C-4.66 7.67 -5.32 7.34 -6 7 C-4.02 4.69 -2.04 2.38 0 0 Z " fill="#73A550" transform="translate(826,471)"/>
<path d="M0 0 C0.66 0.66 1.32 1.32 2 2 C-3.2734375 5.22265625 -3.2734375 5.22265625 -5 6 C-5.66 5.67 -6.32 5.34 -7 5 C-4.69 3.35 -2.38 1.7 0 0 Z " fill="#71A748" transform="translate(795,382)"/>
<path d="M0 0 C0.66 0 1.32 0 2 0 C2.33 2.64 2.66 5.28 3 8 C1.33333333 6.33333333 -0.33333333 4.66666667 -2 3 C-1.34 2.01 -0.68 1.02 0 0 Z " fill="#83B45E" transform="translate(973,314)"/>
</svg>
